<svg id="icon_linkedin" xmlns="http://www.w3.org/2000/svg" xmlns:xlink="http://www.w3.org/1999/xlink" version="1.1" x="0" y="0" width="512" height="512" viewBox="0 0 512 512" enable-background="new 0 0 512 512" xml:space="preserve">
  <g>
    <path d="M142.3 95.1c0.2 13.9-4.6 25.5-14.4 34.9 -9.8 9.3-22.7 14-38.7 14h-0.6c-15.6 0-28.2-4.7-37.7-14 -9.5-9.3-14.3-21-14.3-34.9 0-14.1 4.9-25.8 14.7-35 9.8-9.2 22.6-13.9 38.4-13.9 15.8 0 28.5 4.6 38 13.9C137.2 69.4 142.1 81 142.3 95.1zM136.3 182.6v283.1H42V182.6H136.3zM475.4 303.4v162.3h-94V314.3c0-20-3.9-35.7-11.6-47 -7.7-11.3-19.8-17-36.1-17 -12 0-22 3.3-30.1 9.9 -8.1 6.6-14.1 14.7-18.1 24.4 -2.1 5.7-3.1 13.4-3.1 23.1v158h-94c0.4-76 0.6-137.6 0.6-184.9 0-47.2-0.1-75.4-0.3-84.6l-0.3-13.7h94v41.1h-0.6c3.8-6.1 7.7-11.4 11.7-16 4-4.6 9.4-9.5 16.1-14.9 6.8-5.3 15-9.5 24.9-12.4 9.8-3 20.7-4.4 32.7-4.4 32.6 0 58.8 10.8 78.6 32.4C465.5 230 475.4 261.7 475.4 303.4z"/>
  </g>
</svg>
