<svg id="icon_twitter" xmlns="http://www.w3.org/2000/svg" xmlns:xlink="http://www.w3.org/1999/xlink" version="1.1" x="0" y="0" width="512" height="512" viewBox="0 0 512 512" enable-background="new 0 0 512 512" xml:space="preserve">
  <g>
    <path fill="#2E80BA" d="M493.7 278.9c0 39.4-5.8 71-17.4 94.6 -7.2 14.7-17.3 27.3-30.1 38 -12.9 10.7-26.3 18.9-40.3 24.6 -14 5.7-30.2 10.2-48.6 13.6 -18.4 3.3-34.7 5.4-49 6.3 -14.3 0.9-30.2 1.3-47.7 1.3 -14.9 0-28.4-0.3-40.6-0.9 -12.2-0.6-26.2-1.8-42.1-3.6 -15.9-1.8-30.4-4.7-43.6-8.6 -13.1-3.9-26.2-8.8-39.1-14.7 -13-5.9-24.5-13.6-34.6-23.1C50.5 396.8 42.3 385.8 36 373.4 24.2 350 18.3 318.5 18.3 278.9c0-45.1 13-82.9 38.9-113.1 -5.1-15.6-7.7-31.8-7.7-48.6 0-22.1 4.9-42.9 14.6-62.3 20.6 0 38.7 3.8 54.3 11.3 15.6 7.5 33.6 19.3 54 35.3 28-6.7 57.4-10 88.3-10 28.2 0 54.9 3.1 80 9.1C360.6 85 378.4 73.4 394 66c15.6-7.4 33.6-11.1 54-11.1 9.7 19.4 14.6 40.2 14.6 62.3 0 16.6-2.6 32.6-7.7 48C480.8 195.6 493.7 233.5 493.7 278.9zM429.7 329.1c0-22.9-6.6-42.3-19.7-58.3s-31-24-53.4-24c-7.8 0-26.4 2-55.7 6C287.3 255 272.4 256 256 256c-16.4 0-31.3-1-44.9-3.1 -29-4-47.5-6-55.7-6 -22.5 0-40.3 8-53.4 24s-19.7 35.4-19.7 58.3c0 16.8 3 31.4 9.1 43.9 6.1 12.5 13.8 22.3 23.1 29.4 9.3 7.1 21 12.9 34.9 17.1 13.9 4.3 27.2 7.1 40 8.4 12.8 1.3 27 2 42.6 2h48c15.6 0 29.8-0.7 42.6-2 12.8-1.3 26.1-4.1 40-8.4 13.9-4.3 25.5-10 34.9-17.1 9.3-7.1 17-16.9 23.1-29.4C426.7 360.5 429.7 345.9 429.7 329.1zM197.6 305.7c2.4 8 3.6 15.8 3.6 23.4 0 7.6-1.2 15.4-3.6 23.4 -2.4 8-6.5 15.2-12.3 21.7 -5.8 6.5-12.7 9.7-20.7 9.7s-14.9-3.2-20.7-9.7c-5.8-6.5-9.9-13.7-12.3-21.7 -2.4-8-3.6-15.8-3.6-23.4 0-7.6 1.2-15.4 3.6-23.4 2.4-8 6.5-15.2 12.3-21.7 5.8-6.5 12.7-9.7 20.7-9.7s14.9 3.2 20.7 9.7C191.1 290.5 195.2 297.7 197.6 305.7zM380.4 305.7c2.4 8 3.6 15.8 3.6 23.4 0 7.6-1.2 15.4-3.6 23.4 -2.4 8-6.5 15.2-12.3 21.7 -5.8 6.5-12.7 9.7-20.7 9.7s-14.9-3.2-20.7-9.7c-5.8-6.5-9.9-13.7-12.3-21.7 -2.4-8-3.6-15.8-3.6-23.4 0-7.6 1.2-15.4 3.6-23.4 2.4-8 6.5-15.2 12.3-21.7 5.8-6.5 12.7-9.7 20.7-9.7s14.9 3.2 20.7 9.7C374 290.5 378 297.7 380.4 305.7z"/>
  </g>
</svg>
