<svg id="icon_twitter" xmlns="http://www.w3.org/2000/svg" xmlns:xlink="http://www.w3.org/1999/xlink" version="1.1" x="0" y="0" width="512" height="512" viewBox="0 0 512 512" enable-background="new 0 0 512 512" xml:space="preserve">
  <g>
    <path d="M481.1 116.6c-12.8 18.7-28.2 34.6-46.3 47.7 0.2 2.7 0.3 6.7 0.3 12 0 24.8-3.6 49.5-10.9 74.1 -7.2 24.7-18.2 48.3-33 71 -14.8 22.7-32.3 42.7-52.7 60.1 -20.4 17.4-45 31.3-73.7 41.7 -28.8 10.4-59.5 15.6-92.3 15.6 -51.6 0-98.9-13.8-141.7-41.4 6.7 0.8 14.1 1.1 22.3 1.1 42.9 0 81-13.1 114.6-39.4 -20-0.4-37.9-6.5-53.7-18.4 -15.8-11.9-26.7-27.1-32.6-45.6 6.3 1 12.1 1.4 17.4 1.4 8.2 0 16.3-1 24.3-3.1 -21.3-4.4-39-15-53-31.9s-21-36.4-21-58.7v-1.1c13 7.2 26.9 11.1 41.7 11.7 -12.6-8.4-22.6-19.3-30-32.9 -7.4-13.5-11.1-28.2-11.1-44 0-16.8 4.2-32.3 12.6-46.6 23 28.4 51.1 51.1 84.1 68.1 33 17.1 68.4 26.5 106.1 28.4 -1.5-7.2-2.3-14.3-2.3-21.1 0-25.5 9-47.3 27-65.3s39.8-27 65.3-27c26.7 0 49.1 9.7 67.4 29.1 20.8-4 40.3-11.4 58.6-22.3C461.5 101.9 448 118.9 428 130.9 445.7 129 463.4 124.2 481.1 116.6z"/>
  </g>
</svg>
