<svg id="icon_dribbble" xmlns="http://www.w3.org/2000/svg" xmlns:xlink="http://www.w3.org/1999/xlink" version="1.1" x="0" y="0" width="512" height="512" viewBox="0 0 512 512" enable-background="new 0 0 512 512" xml:space="preserve">
  <g>
    <path fill="#2E80BA" d="M446 145.9c19.6 33.6 29.4 70.3 29.4 110.1 0 39.8-9.8 76.5-29.4 110.1 -19.6 33.6-46.2 60.2-79.9 79.9 -33.6 19.6-70.3 29.4-110.1 29.4 -39.8 0-76.5-9.8-110.1-29.4C112.2 426.4 85.6 399.8 66 366.1c-19.6-33.6-29.4-70.3-29.4-110.1 0-39.8 9.8-76.5 29.4-110.1C85.6 112.2 112.2 85.6 145.9 66 179.5 46.4 216.2 36.6 256 36.6c39.8 0 76.5 9.8 110.1 29.4C399.8 85.6 426.4 112.2 446 145.9zM276.3 255.1c-4-9.3-9-19.9-15.1-31.7 -59.2 17.7-123.3 26.6-192.3 26.6 -0.2 1.3-0.3 3.3-0.3 6 0 23.6 4.2 46.1 12.6 67.6 8.4 21.4 20.2 40.6 35.4 57.6 9.5-17 21.3-32.8 35.3-47.6 14-14.8 27.6-26.6 40.7-35.6 13.1-8.9 25.6-16.7 37.3-23.1 11.7-6.5 21.2-11 28.4-13.7l10.6-3.7c0.8-0.2 2-0.5 3.7-1C274.3 256 275.5 255.5 276.3 255.1zM245.7 194.6C222.9 154 199.6 118 176 86.6c-26.3 12.4-48.6 30.1-66.9 53.1 -18.3 23-30.5 49-36.6 77.7C130.1 217.4 187.8 209.8 245.7 194.6zM329.1 428.6c-8-45.9-21.3-93.3-40-142.3h-0.6L288 286.6c-3 1.1-7.1 2.7-12.3 4.7 -5.1 2-14.8 6.7-28.9 14 -14.1 7.3-27.1 15.1-39.1 23.4s-24.5 19.2-37.4 32.7c-13 13.5-22.8 27.6-29.4 42.3l-4.3-3.1c35 28.6 74.9 42.9 119.4 42.9C281.1 443.4 305.5 438.5 329.1 428.6zM211.1 74c-0.2 0-0.4 0.1-0.6 0.3C210.8 74.1 211 74 211.1 74zM379.7 115.4C344.5 84.2 303.2 68.6 256 68.6c-14.5 0-29.2 1.8-44.3 5.4 25 32.4 48.4 68.8 70.3 109.1 13.1-5 25.5-10.7 37.1-17.3 11.6-6.6 20.8-12.4 27.6-17.6 6.8-5.1 13-10.6 18.7-16.3 5.7-5.7 9.3-9.6 10.7-11.6C377.6 118.4 378.8 116.8 379.7 115.4zM443.4 254c-0.6-44.2-14.8-83.2-42.6-117.1l-0.3 0.3c-1.7 2.3-3.5 4.6-5.4 7 -1.9 2.4-6 6.6-12.4 12.7 -6.4 6.1-13.1 11.9-20.3 17.3s-16.7 11.6-28.6 18.6c-11.9 7-24.4 13.1-37.6 18.4 4.8 10.1 9 19.1 12.6 27.1 0.4 1.1 1 2.8 1.9 5 0.9 2.2 1.6 3.8 2.1 4.7 6.9-0.9 14-1.6 21.3-2 7.3-0.4 14.3-0.6 21-0.6 6.7 0 13.2 0.1 19.7 0.4 6.5 0.3 12.6 0.7 18.3 1.1 5.7 0.5 11.1 1 16.1 1.6 5 0.6 9.6 1.2 13.7 1.9 4.1 0.7 7.6 1.2 10.4 1.7 2.9 0.5 5.2 0.9 7.1 1.3L443.4 254zM441.1 285.7c-40-11.4-79-14.2-116.9-8.3 16.6 45.5 28.8 90.2 36.6 134 21.1-14.3 38.8-32.3 52.9-54.1C427.8 335.5 437 311.6 441.1 285.7z"/>
  </g>
</svg>
