<svg id="icon_tumblr" xmlns="http://www.w3.org/2000/svg" xmlns:xlink="http://www.w3.org/1999/xlink" version="1.1" x="0" y="0" width="512" height="512" viewBox="0 0 512 512" enable-background="new 0 0 512 512" xml:space="preserve">
  <g>
    <path fill="#2E80BA" d="M210 36.6h62.6v110.9h104v68.9h-104v112.6c0 25.9 1.3 42.3 4 49.1 2.5 7.1 7.4 12.8 14.9 17.1 9.5 5.9 20.7 8.9 33.4 8.9 22.3 0 44.4-7.2 66.3-21.7v69.1c-19.4 9.1-36.4 15.3-50.9 18.6 -14.7 3.6-31.1 5.4-49.4 5.4 -20 0-37.7-2.6-53.1-7.7 -14.9-4.8-28-11.9-39.4-21.4 -11-9.7-18.6-19.7-22.6-30 -4.2-10.3-6.3-25.6-6.3-46v-154h-48.6v-62c17.3-5.7 32.1-13.7 44.3-24 12.2-10.5 22-23 29.4-37.7C202 77.7 207.1 59 210 36.6z"/>
  </g>
</svg>
